# xmcd
#
# Track frame offsets: 
#        150
#        22744
#        46095
#        60853
#        85957
#        124038
#        145884
#
# Disc length: 2298 seconds
#
# Revision: 0
# Processed by: cddbd v1.5.2PL0 Copyright (c) Steve Scherf et al.
# Submitted via: ExactAudioCopy v0.99pb4
#
DISCID=4b08f807
DTITLE=Sonny Fortune - With Sound Reason
DYEAR=1979
DGENRE=Jazz
TTITLE0=Igbob's Shuffle
TTITLE1=Boy From Witbank
TTITLE2=Francisco
TTITLE3=Come In Out Of The Rain
TTITLE4=Georgiana
TTITLE5=Loneliness Returns
TTITLE6=Afortunado
EXTD=
EXTT0=
EXTT1=
EXTT2=
EXTT3=
EXTT4=
EXTT5=
EXTT6=
PLAYORDER=
